<mxfile host="app.diagrams.net" modified="2024-01-03T03:16:47.768Z" agent="Mozilla/5.0 (Windows NT 10.0; Win64; x64) AppleWebKit/537.36 (KHTML, like Gecko) Chrome/120.0.0.0 Safari/537.36" etag="s2tJvhBDSrqMeqP18GBN" version="22.1.16" type="device">
  <diagram name="Page-1" id="iYh8QrPaR2PDIGJisQsf">
    <mxGraphModel dx="880" dy="434" grid="1" gridSize="10" guides="1" tooltips="1" connect="1" arrows="1" fold="1" page="1" pageScale="1" pageWidth="827" pageHeight="1169" math="0" shadow="0">
      <root>
        <mxCell id="0" />
        <mxCell id="1" parent="0" />
        <mxCell id="sKVYye0cVM-Fh7b1e5kX-16" style="edgeStyle=orthogonalEdgeStyle;rounded=0;orthogonalLoop=1;jettySize=auto;html=1;entryX=0.5;entryY=0;entryDx=0;entryDy=0;" edge="1" parent="1" source="sKVYye0cVM-Fh7b1e5kX-1" target="sKVYye0cVM-Fh7b1e5kX-2">
          <mxGeometry relative="1" as="geometry" />
        </mxCell>
        <mxCell id="sKVYye0cVM-Fh7b1e5kX-17" style="edgeStyle=orthogonalEdgeStyle;rounded=0;orthogonalLoop=1;jettySize=auto;html=1;exitX=0;exitY=0.5;exitDx=0;exitDy=0;entryX=0.5;entryY=0;entryDx=0;entryDy=0;" edge="1" parent="1" source="sKVYye0cVM-Fh7b1e5kX-1" target="sKVYye0cVM-Fh7b1e5kX-10">
          <mxGeometry relative="1" as="geometry" />
        </mxCell>
        <mxCell id="sKVYye0cVM-Fh7b1e5kX-1" value="Read 40 Actions and assign Labels from 0 to 39" style="rounded=1;whiteSpace=wrap;html=1;" vertex="1" parent="1">
          <mxGeometry x="310" y="120" width="200" height="70" as="geometry" />
        </mxCell>
        <mxCell id="sKVYye0cVM-Fh7b1e5kX-4" value="" style="edgeStyle=orthogonalEdgeStyle;rounded=0;orthogonalLoop=1;jettySize=auto;html=1;" edge="1" parent="1" source="sKVYye0cVM-Fh7b1e5kX-2" target="sKVYye0cVM-Fh7b1e5kX-3">
          <mxGeometry relative="1" as="geometry" />
        </mxCell>
        <mxCell id="sKVYye0cVM-Fh7b1e5kX-2" value="determine the 4000&lt;br/&gt;train image filenames" style="rounded=0;whiteSpace=wrap;html=1;" vertex="1" parent="1">
          <mxGeometry x="540" y="250" width="190" height="80" as="geometry" />
        </mxCell>
        <mxCell id="sKVYye0cVM-Fh7b1e5kX-6" value="" style="edgeStyle=orthogonalEdgeStyle;rounded=0;orthogonalLoop=1;jettySize=auto;html=1;" edge="1" parent="1" source="sKVYye0cVM-Fh7b1e5kX-3" target="sKVYye0cVM-Fh7b1e5kX-5">
          <mxGeometry relative="1" as="geometry" />
        </mxCell>
        <mxCell id="sKVYye0cVM-Fh7b1e5kX-3" value="assign a label to&lt;br/&gt;every train filename" style="whiteSpace=wrap;html=1;rounded=0;" vertex="1" parent="1">
          <mxGeometry x="575" y="360" width="120" height="60" as="geometry" />
        </mxCell>
        <mxCell id="sKVYye0cVM-Fh7b1e5kX-8" value="" style="edgeStyle=orthogonalEdgeStyle;rounded=0;orthogonalLoop=1;jettySize=auto;html=1;" edge="1" parent="1" source="sKVYye0cVM-Fh7b1e5kX-5" target="sKVYye0cVM-Fh7b1e5kX-7">
          <mxGeometry relative="1" as="geometry" />
        </mxCell>
        <mxCell id="sKVYye0cVM-Fh7b1e5kX-5" value="read all the 4000&lt;br/&gt;train images from folder &lt;b&gt;&quot;\Stanford40\JPEGImages&quot;&amp;nbsp;&lt;/b&gt;" style="whiteSpace=wrap;html=1;rounded=0;" vertex="1" parent="1">
          <mxGeometry x="552.5" y="460" width="165" height="60" as="geometry" />
        </mxCell>
        <mxCell id="sKVYye0cVM-Fh7b1e5kX-7" value="resize and normalize all the train&lt;br/&gt;images&amp;nbsp;" style="whiteSpace=wrap;html=1;rounded=0;" vertex="1" parent="1">
          <mxGeometry x="575" y="560" width="120" height="60" as="geometry" />
        </mxCell>
        <mxCell id="sKVYye0cVM-Fh7b1e5kX-9" value="" style="edgeStyle=orthogonalEdgeStyle;rounded=0;orthogonalLoop=1;jettySize=auto;html=1;" edge="1" parent="1" source="sKVYye0cVM-Fh7b1e5kX-10" target="sKVYye0cVM-Fh7b1e5kX-12">
          <mxGeometry relative="1" as="geometry" />
        </mxCell>
        <mxCell id="sKVYye0cVM-Fh7b1e5kX-10" value="determine the 5532&lt;br&gt;test image filenames" style="rounded=0;whiteSpace=wrap;html=1;" vertex="1" parent="1">
          <mxGeometry x="120" y="250" width="190" height="80" as="geometry" />
        </mxCell>
        <mxCell id="sKVYye0cVM-Fh7b1e5kX-11" value="" style="edgeStyle=orthogonalEdgeStyle;rounded=0;orthogonalLoop=1;jettySize=auto;html=1;" edge="1" parent="1" source="sKVYye0cVM-Fh7b1e5kX-12" target="sKVYye0cVM-Fh7b1e5kX-14">
          <mxGeometry relative="1" as="geometry" />
        </mxCell>
        <mxCell id="sKVYye0cVM-Fh7b1e5kX-12" value="assign a label to&lt;br&gt;every test filename" style="whiteSpace=wrap;html=1;rounded=0;" vertex="1" parent="1">
          <mxGeometry x="155" y="360" width="120" height="60" as="geometry" />
        </mxCell>
        <mxCell id="sKVYye0cVM-Fh7b1e5kX-13" value="" style="edgeStyle=orthogonalEdgeStyle;rounded=0;orthogonalLoop=1;jettySize=auto;html=1;" edge="1" parent="1" source="sKVYye0cVM-Fh7b1e5kX-14" target="sKVYye0cVM-Fh7b1e5kX-15">
          <mxGeometry relative="1" as="geometry" />
        </mxCell>
        <mxCell id="sKVYye0cVM-Fh7b1e5kX-14" value="read all the 5532&lt;br&gt;train images from folder &lt;b&gt;&quot;\Stanford40\JPEGImages&quot;&amp;nbsp;&lt;/b&gt;" style="whiteSpace=wrap;html=1;rounded=0;" vertex="1" parent="1">
          <mxGeometry x="132.5" y="460" width="165" height="60" as="geometry" />
        </mxCell>
        <mxCell id="sKVYye0cVM-Fh7b1e5kX-15" value="resize and normalize all the test&lt;br&gt;images&amp;nbsp;" style="whiteSpace=wrap;html=1;rounded=0;" vertex="1" parent="1">
          <mxGeometry x="155" y="560" width="120" height="60" as="geometry" />
        </mxCell>
        <mxCell id="sKVYye0cVM-Fh7b1e5kX-18" value="Train and validate the CNN model" style="rounded=0;whiteSpace=wrap;html=1;" vertex="1" parent="1">
          <mxGeometry x="380" y="680" width="120" height="60" as="geometry" />
        </mxCell>
        <mxCell id="sKVYye0cVM-Fh7b1e5kX-19" style="edgeStyle=orthogonalEdgeStyle;rounded=0;orthogonalLoop=1;jettySize=auto;html=1;exitX=0.5;exitY=1;exitDx=0;exitDy=0;entryX=0.675;entryY=-0.017;entryDx=0;entryDy=0;entryPerimeter=0;" edge="1" parent="1" source="sKVYye0cVM-Fh7b1e5kX-7" target="sKVYye0cVM-Fh7b1e5kX-18">
          <mxGeometry relative="1" as="geometry" />
        </mxCell>
        <mxCell id="sKVYye0cVM-Fh7b1e5kX-20" style="edgeStyle=orthogonalEdgeStyle;rounded=0;orthogonalLoop=1;jettySize=auto;html=1;exitX=0.5;exitY=1;exitDx=0;exitDy=0;entryX=0.358;entryY=-0.033;entryDx=0;entryDy=0;entryPerimeter=0;" edge="1" parent="1" source="sKVYye0cVM-Fh7b1e5kX-15" target="sKVYye0cVM-Fh7b1e5kX-18">
          <mxGeometry relative="1" as="geometry" />
        </mxCell>
        <mxCell id="sKVYye0cVM-Fh7b1e5kX-21" value="test images" style="text;html=1;strokeColor=none;fillColor=none;align=center;verticalAlign=middle;whiteSpace=wrap;rounded=0;" vertex="1" parent="1">
          <mxGeometry x="300" y="620" width="70" height="30" as="geometry" />
        </mxCell>
        <mxCell id="sKVYye0cVM-Fh7b1e5kX-23" value="test labels" style="text;html=1;strokeColor=none;fillColor=none;align=center;verticalAlign=middle;whiteSpace=wrap;rounded=0;" vertex="1" parent="1">
          <mxGeometry x="300" y="650" width="70" height="30" as="geometry" />
        </mxCell>
        <mxCell id="sKVYye0cVM-Fh7b1e5kX-24" value="train images" style="text;html=1;strokeColor=none;fillColor=none;align=center;verticalAlign=middle;whiteSpace=wrap;rounded=0;" vertex="1" parent="1">
          <mxGeometry x="500" y="620" width="70" height="30" as="geometry" />
        </mxCell>
        <mxCell id="sKVYye0cVM-Fh7b1e5kX-25" value="train labels" style="text;html=1;strokeColor=none;fillColor=none;align=center;verticalAlign=middle;whiteSpace=wrap;rounded=0;" vertex="1" parent="1">
          <mxGeometry x="500" y="650" width="70" height="30" as="geometry" />
        </mxCell>
      </root>
    </mxGraphModel>
  </diagram>
</mxfile>
